<svg width="27" height="24" viewBox="0 0 27 24" fill="none" xmlns="http://www.w3.org/2000/svg">
<path d="M22.5947 11.8229L22.5946 11.8228L22.5888 11.8285L13.5009 20.6473L4.24582 11.6671C3.31116 10.7258 2.73846 9.45495 2.73846 8.05463C2.73846 5.17769 5.15739 2.82563 8.16671 2.82563C10.4309 2.82563 12.3643 4.16057 13.1796 6.04793L13.5009 6.79169L13.8222 6.04793C14.6376 4.16051 16.57 2.82563 18.8342 2.82563C21.8435 2.82563 24.2624 5.17853 24.2624 8.05463C24.2624 9.53371 23.6245 10.8688 22.5947 11.8229ZM19.1842 1.20201V1.19288H18.8342C16.7523 1.19288 14.8245 2.06452 13.5001 3.52674C12.1763 2.06446 10.2485 1.19288 8.16581 1.19288C4.2649 1.19288 1.07149 4.25976 1.07149 8.05463C1.07149 9.83609 1.77741 11.5255 3.05374 12.8094L3.0537 12.8094L3.05823 12.8138L13.2563 22.7092L13.5 22.9457L13.7437 22.7092L23.7577 12.9924C25.149 11.701 25.9285 9.94195 25.9285 8.0555C25.9285 4.37389 22.9234 1.37889 19.1842 1.20201Z" fill="white" stroke="white" stroke-width="0.7"/>
</svg>
